<svg width="20" height="20" viewBox="0 0 20 20" fill="none" xmlns="http://www.w3.org/2000/svg">
<path d="M1.77148 6.4137C1.77148 3.25411 3.35128 1.67432 6.51087 1.67432H12.83C15.9896 1.67432 17.5694 3.25411 17.5694 6.4137V10.3632C17.5694 13.5228 15.9896 15.1026 12.83 15.1026H12.4351C12.1902 15.1026 11.9533 15.221 11.8032 15.4185L10.6183 16.9983C10.097 17.6934 9.24391 17.6934 8.72258 16.9983L7.53773 15.4185C7.41135 15.2447 7.11909 15.1026 6.90581 15.1026H6.51087C3.35128 15.1026 1.77148 14.3127 1.77148 10.3632V9.57328" stroke="#959595" stroke-width="1.18485" stroke-miterlimit="10" stroke-linecap="round" stroke-linejoin="round"/>
<path d="M12.8271 8.78362H12.8342" stroke="#959595" stroke-width="1.57979" stroke-linecap="round" stroke-linejoin="round"/>
<path d="M9.66698 8.78362H9.67407" stroke="#959595" stroke-width="1.57979" stroke-linecap="round" stroke-linejoin="round"/>
<path d="M6.50584 8.78362H6.51294" stroke="#959595" stroke-width="1.57979" stroke-linecap="round" stroke-linejoin="round"/>
</svg>
