<svg width="20" height="20" viewBox="0 0 20 20" fill="none" xmlns="http://www.w3.org/2000/svg">
<path d="M2.4766 9.61281C2.08165 10.7187 2.79256 11.6665 3.97741 11.6665L7.13699 11.6665C7.61093 11.6665 8.00588 12.0615 7.92689 12.6144L7.53194 15.1421C7.37396 15.853 7.8479 16.6429 8.55881 16.8799C9.19072 17.1168 9.98062 16.8009 10.2966 16.3269L13.5352 11.5086" stroke="#FF0000" stroke-width="1.18485" stroke-miterlimit="10" stroke-linecap="round" stroke-linejoin="round"/>
<path d="M13.5352 4.5577L11.0865 2.66195C10.7705 2.34599 10.0596 2.18801 9.58567 2.18801L6.58406 2.18801C5.63619 2.18801 4.60932 2.89892 4.37235 3.84679L3.39288 6.82471" stroke="#FF0000" stroke-width="1.18485" stroke-miterlimit="10" stroke-linecap="round" stroke-linejoin="round"/>
<path d="M17.5645 4.55752L17.5645 12.2985C17.5645 13.4044 17.0905 13.7993 15.9847 13.7993L15.1948 13.7993C14.0889 13.7993 13.615 13.4044 13.615 12.2985L13.615 4.55752C13.615 3.45167 14.0889 3.05672 15.1948 3.05672L15.9847 3.05672C17.0905 3.05672 17.5645 3.45167 17.5645 4.55752Z" stroke="#FF0000" stroke-width="1.18485" stroke-linecap="round" stroke-linejoin="round"/>
</svg>
