<svg width="37" height="37" viewBox="0 0 37 37" fill="none" xmlns="http://www.w3.org/2000/svg">
<path d="M1.83301 18.1403C1.83301 27.3453 9.29467 34.807 18.4997 34.807C27.7047 34.807 35.1663 27.3453 35.1663 18.1403C35.1663 8.9353 27.7047 1.47363 18.4997 1.47363C9.29467 1.47363 1.83301 8.9353 1.83301 18.1403Z" stroke="#007BFF" stroke-width="2.5" stroke-linecap="round" stroke-linejoin="round"/>
<path d="M20.1661 1.55664C20.1661 1.55664 25.1661 8.13997 25.1661 18.14C25.1661 28.14 20.1661 34.7233 20.1661 34.7233M16.8328 34.7233C16.8328 34.7233 11.8328 28.14 11.8328 18.14C11.8328 8.13997 16.8328 1.55664 16.8328 1.55664M2.88281 23.9733H34.1161M2.88281 12.3066H34.1161" stroke="#007BFF" stroke-width="2.5" stroke-linecap="round" stroke-linejoin="round"/>
</svg>
