<svg width="19" height="19" viewBox="0 0 19 19" fill="none" xmlns="http://www.w3.org/2000/svg">
<path d="M6.5332 14.5327V6.62064C6.5332 6.30914 6.62665 6.00543 6.79798 5.74844L8.92397 2.58672C9.25883 2.08053 10.0921 1.72231 10.8008 1.98708C11.5639 2.24407 12.0701 3.10069 11.9066 3.86387L11.5016 6.41038C11.4705 6.64401 11.5328 6.85427 11.6652 7.01781C11.7976 7.16577 11.9922 7.25922 12.2025 7.25922H15.4032C16.0184 7.25922 16.5479 7.50842 16.8594 7.94452C17.1554 8.36504 17.2099 8.91017 17.0152 9.46308L15.0995 15.2959C14.858 16.2616 13.8067 17.0481 12.7632 17.0481H9.72608C9.20432 17.0481 8.47229 16.869 8.13743 16.5341L7.14063 15.7632C6.75904 15.475 6.5332 15.0156 6.5332 14.5327Z" fill="#007BFF"/>
<path d="M4.0574 5.10205H3.25529C2.04823 5.10205 1.55762 5.5693 1.55762 6.72185V14.5561C1.55762 15.7086 2.04823 16.1759 3.25529 16.1759H4.0574C5.26447 16.1759 5.75508 15.7086 5.75508 14.5561V6.72185C5.75508 5.5693 5.26447 5.10205 4.0574 5.10205Z" fill="#007BFF"/>
</svg>
