<svg width="19" height="20" viewBox="0 0 19 20" fill="none" xmlns="http://www.w3.org/2000/svg">
<path d="M16.9677 9.53416C17.3627 8.4283 16.6518 7.48043 15.4669 7.48043H12.3073C11.8334 7.48043 11.4385 7.08548 11.5174 6.53255L11.9124 4.00488C12.0704 3.29397 11.5964 2.50408 10.8855 2.26711C10.2536 2.03014 9.46372 2.3461 9.14776 2.82004L5.90918 7.63841" stroke="#007BFF" stroke-width="1.18485" stroke-miterlimit="10" stroke-linecap="round" stroke-linejoin="round"/>
<path d="M5.90918 14.5893L8.35786 16.485C8.67382 16.801 9.38473 16.959 9.85866 16.959H12.8603C13.8081 16.959 14.835 16.2481 15.072 15.3002L16.0515 12.3223" stroke="#007BFF" stroke-width="1.18485" stroke-miterlimit="10" stroke-linecap="round" stroke-linejoin="round"/>
<path d="M1.87988 14.5894V6.84846C1.87988 5.7426 2.35382 5.34766 3.45968 5.34766H4.24957C5.35543 5.34766 5.82937 5.7426 5.82937 6.84846V14.5894C5.82937 15.6953 5.35543 16.0903 4.24957 16.0903H3.45968C2.35382 16.0903 1.87988 15.6953 1.87988 14.5894Z" stroke="#007BFF" stroke-width="1.18485" stroke-linecap="round" stroke-linejoin="round"/>
</svg>
