<svg width="19" height="20" viewBox="0 0 19 20" fill="none" xmlns="http://www.w3.org/2000/svg">
<path d="M16.9677 10.397C17.3627 9.2911 16.6518 8.34322 15.4669 8.34322H12.3073C11.8334 8.34322 11.4385 7.94827 11.5174 7.39534L11.9124 4.86767C12.0704 4.15677 11.5964 3.36687 10.8855 3.1299C10.2536 2.89293 9.46372 3.20889 9.14776 3.68283L5.90918 8.5012" stroke="#007BFF" stroke-width="1.18485" stroke-miterlimit="10" stroke-linecap="round" stroke-linejoin="round"/>
<path d="M5.90918 15.4521L8.35786 17.3478C8.67382 17.6638 9.38473 17.8218 9.85866 17.8218H12.8603C13.8081 17.8218 14.835 17.1108 15.072 16.163L16.0515 13.1851" stroke="#007BFF" stroke-width="1.18485" stroke-miterlimit="10" stroke-linecap="round" stroke-linejoin="round"/>
<path d="M1.87988 15.4522V7.71125C1.87988 6.6054 2.35382 6.21045 3.45968 6.21045H4.24957C5.35543 6.21045 5.82937 6.6054 5.82937 7.71125V15.4522C5.82937 16.5581 5.35543 16.953 4.24957 16.953H3.45968C2.35382 16.953 1.87988 16.5581 1.87988 15.4522Z" stroke="#007BFF" stroke-width="1.18485" stroke-linecap="round" stroke-linejoin="round"/>
</svg>
