<svg width="132" height="26" viewBox="0 0 132 26" fill="none" xmlns="http://www.w3.org/2000/svg">
<path d="M11.9093 19.6757C18.4888 26.2551 25.2739 26.2552 31.8533 19.6757L28.9748 15.9748C26.0963 20.4981 19.3112 21.9374 15.1991 15.9748L11.9093 19.6757Z" fill="#8A0000"/>
<path d="M33.8079 11.6533C39.0438 7.91357 41.6332 10.1076 42.2734 11.6721C37.7366 10.7666 31.533 20.174 31.533 20.174C31.1699 20.0926 29.4392 17.6292 28.6193 16.4077C29.0529 15.6748 32.259 12.9327 33.8079 11.6533Z" fill="#8A0000"/>
<path d="M10.0294 11.8007C4.74885 8.12423 2.18604 10.3493 1.5647 11.9214C6.09033 10.9614 12.4066 20.2934 12.4066 20.2934C12.7687 20.2077 14.4696 17.7237 15.2748 16.4924C14.8325 15.7647 11.5936 13.0614 10.0294 11.8007Z" fill="#8A0000"/>
<path d="M42.731 19.6305C45.341 13.1045 42.2967 10.4444 40.6055 9.92623C42.7741 12.8106 40.1911 18.7209 36.3638 20.94C32.0117 23.1445 27.774 13.4915 25.481 11.1876C23.5901 9.41001 22.1335 9.45902 22.1335 9.45902L22.1896 14.7411C22.1896 14.7411 23.0596 14.6419 26.6379 19.8926C30.589 27.0345 39.4685 27.7879 42.731 19.6305Z" fill="#FF0000"/>
<path d="M1.32453 19.8867C-1.36376 13.3926 1.6483 10.6961 3.3331 10.1576C1.1994 13.0678 3.8533 18.9466 7.70696 21.1196C12.0853 23.2715 16.2066 13.5683 18.4717 11.237C20.3411 9.43678 22.1335 9.45902 22.1335 9.45902L22.1896 14.7411C22.1896 14.7411 21.0331 14.6419 17.4196 19.9553C13.5547 27.1441 4.68489 28.0043 1.32453 19.8867Z" fill="#FF0000"/>
<circle cx="34.8951" cy="4.19132" r="3.67058" transform="rotate(178.6 34.8951 4.19132)" fill="white"/>
<circle cx="8.48658" cy="4.06456" r="3.67058" transform="rotate(-179.289 8.48658 4.06456)" fill="white"/>
<circle cx="22.0252" cy="4.03196" r="3.67058" transform="rotate(-179.289 22.0252 4.03196)" fill="white"/>
<g clip-path="url(#clip0_1376_1042)">
<path d="M50.8686 15.6162H54.3836C54.5527 17.0537 56.0505 17.9958 57.9832 17.9958C59.9279 17.9958 61.2566 17.0657 61.2566 15.7854C61.2566 14.6499 60.4232 14.0218 58.3214 13.5507L56.0505 13.0555C52.8375 12.367 51.2551 10.7363 51.2551 8.1876C51.2551 4.97457 54.0333 2.84865 57.9228 2.84865C61.9814 2.84865 64.5301 4.93833 64.5905 8.09097H61.1721C61.0513 6.61732 59.7588 5.72347 57.9349 5.72347C56.1351 5.72347 54.9272 6.58109 54.9272 7.87355C54.9272 8.94859 55.7727 9.55254 57.7779 10.0115L59.8917 10.4585C63.3825 11.2074 64.9045 12.7052 64.9045 15.3626C64.9045 18.7447 62.1626 20.8827 57.8382 20.8827C53.6468 20.8827 50.9773 18.8897 50.8686 15.6162ZM72.7922 20.8586C68.8785 20.8586 66.3782 18.3461 66.3782 14.0943C66.3782 9.90283 68.9148 7.35415 72.7922 7.35415C76.6695 7.35415 79.2062 9.89076 79.2062 14.0943C79.2062 18.3582 76.7058 20.8586 72.7922 20.8586ZM72.7922 18.1649C74.5195 18.1649 75.6187 16.7034 75.6187 14.1064C75.6187 11.5335 74.5074 10.0478 72.7922 10.0478C71.0769 10.0478 69.9536 11.5335 69.9536 14.1064C69.9536 16.7034 71.0528 18.1649 72.7922 18.1649ZM92.7951 12.4515H89.5217C89.3164 11.0866 88.4104 10.1203 86.9609 10.1203C85.2215 10.1203 84.1344 11.5939 84.1344 14.0943C84.1344 16.643 85.2215 18.0925 86.973 18.0925C88.3863 18.0925 89.3043 17.2469 89.5217 15.8337H92.8072C92.626 18.8897 90.3431 20.8586 86.9368 20.8586C83.0352 20.8586 80.559 18.322 80.559 14.0943C80.559 9.93907 83.0352 7.35415 86.9126 7.35415C90.4155 7.35415 92.6381 9.5163 92.7951 12.4515ZM94.5949 20.5807V3.15062H98.0616V9.93907H98.1341C98.8226 8.3084 100.236 7.39038 102.205 7.39038C105.08 7.39038 106.722 9.25056 106.722 12.2462V20.5807H103.195V12.9951C103.195 11.3282 102.374 10.3135 100.767 10.3135C99.1004 10.3135 98.122 11.4852 98.122 13.1883V20.5807H94.5949Z" fill="white"/>
<path d="M120.698 20.5807L119.369 16.3531H113.245L111.916 20.5807H108.172L114.223 3.15062H118.512L124.575 20.5807H120.698ZM116.265 6.48445L114.03 13.6232H118.584L116.349 6.48445H116.265ZM126.121 20.5807V7.63197H129.648V20.5807H126.121ZM127.885 6.20663C126.822 6.20663 126.001 5.39733 126.001 4.38269C126.001 3.35597 126.822 2.55875 127.885 2.55875C128.948 2.55875 129.769 3.35597 129.769 4.38269C129.769 5.39733 128.948 6.20663 127.885 6.20663Z" fill="#FF0000"/>
</g>
<defs>
<clipPath id="clip0_1376_1042">
<rect width="81.0466" height="21.2747" fill="white" transform="matrix(-1 0 0 1 131.125 2.11029)"/>
</clipPath>
</defs>
</svg>
