<svg width="41" height="41" viewBox="0 0 41 41" fill="none" xmlns="http://www.w3.org/2000/svg">
<path d="M20.533 4.99121C15.0163 4.99121 10.533 9.47454 10.533 14.9912V19.8079C10.533 20.8245 10.0997 22.3745 9.58299 23.2412L7.66633 26.4245C6.48299 28.3912 7.29966 30.5745 9.46632 31.3079C16.6497 33.7079 24.3997 33.7079 31.583 31.3079C33.5997 30.6412 34.483 28.2579 33.383 26.4245L31.4663 23.2412C30.9663 22.3745 30.533 20.8245 30.533 19.8079V14.9912C30.533 9.49121 26.033 4.99121 20.533 4.99121Z" stroke="#007BFF" stroke-width="2.5" stroke-miterlimit="10" stroke-linecap="round"/>
<path d="M23.6169 5.475C23.1002 5.325 22.5669 5.20833 22.0169 5.14167C20.4169 4.94167 18.8835 5.05833 17.4502 5.475C17.9335 4.24167 19.1335 3.375 20.5335 3.375C21.9335 3.375 23.1335 4.24167 23.6169 5.475Z" stroke="#007BFF" stroke-width="2.5" stroke-miterlimit="10" stroke-linecap="round" stroke-linejoin="round"/>
<path d="M25.5322 31.9062C25.5322 34.6562 23.2822 36.9062 20.5322 36.9062C19.1656 36.9062 17.8989 36.3396 16.9989 35.4396C16.0989 34.5396 15.5322 33.2729 15.5322 31.9062" stroke="#007BFF" stroke-width="2.5" stroke-miterlimit="10"/>
</svg>
