<svg width="408" height="252" viewBox="0 0 408 252" fill="none" xmlns="http://www.w3.org/2000/svg">
<mask id="mask0_3721_3817" style="mask-type:luminance" maskUnits="userSpaceOnUse" x="0" y="0" width="435" height="252">
<path d="M434.29 0L0 0L0 251.485H434.29V0Z" fill="white"/>
</mask>
<g mask="url(#mask0_3721_3817)">
<path d="M2.85645 152.329L76.05 74.749L105.404 119.736L2.85645 152.329Z" stroke="#007BFF" stroke-width="0.69" stroke-miterlimit="10"/>
<path d="M4.36133 152.125L87.45 83.063L112.443 100.711L4.36133 152.125Z" fill="#007BFF"/>
<path d="M442.222 142.434C438.473 140.394 296.676 63.5533 228.507 116.803C160.337 170.028 331.717 154.701 298.002 71.9948C264.287 -10.7369 88.623 99.2064 88.623 99.2064" stroke="#007BFF" stroke-width="1.15" stroke-linecap="round" stroke-linejoin="round"/>
<path d="M137.487 111.983L154.778 122.057L163.908 139.833L173.957 122.542L191.758 113.411L174.467 103.363L165.337 85.5623L155.263 102.853L137.487 111.983Z" fill="#007BFF"/>
<path d="M203.284 90.5354C208.157 90.5354 212.108 86.5847 212.108 81.7113C212.108 76.838 208.157 72.8873 203.284 72.8873C198.411 72.8873 194.46 76.838 194.46 81.7113C194.46 86.5847 198.411 90.5354 203.284 90.5354Z" fill="#007BFF"/>
</g>
</svg>
