<svg width="42" height="41" viewBox="0 0 42 41" fill="none" xmlns="http://www.w3.org/2000/svg">
<path d="M38.9242 17.4665C38.7754 12.9255 36.8992 8.61252 33.6785 5.40785C30.2821 2.01082 25.7682 0.140625 20.969 0.140625C11.276 0.140625 3.35588 7.85575 3.01448 17.4665C2.26708 17.7976 1.63174 18.3383 1.18544 19.0232C0.739142 19.708 0.501045 20.5076 0.5 21.3251V26.0655C0.50121 27.1849 0.946429 28.2581 1.73797 29.0497C2.52951 29.8412 3.60273 30.2864 4.72214 30.2877C5.44641 30.2868 6.14076 29.9987 6.6529 29.4866C7.16503 28.9744 7.45313 28.2801 7.45399 27.5558V19.8341C7.45399 18.4196 6.36908 17.2661 4.98977 17.1291C5.49894 8.75593 12.4693 2.09894 20.969 2.09894C25.246 2.09894 29.2677 3.76613 32.2946 6.79304C35.0741 9.57255 36.7008 13.1954 36.9456 17.1297C35.5676 17.2681 34.4847 18.4209 34.4847 19.8341V27.5551C34.4847 28.9815 35.5866 30.1421 36.9822 30.2628V32.214C36.981 33.2705 36.5607 34.2834 35.8136 35.0304C35.0665 35.7774 34.0535 36.1975 32.997 36.1985H30.0458C29.8469 35.6184 29.4712 35.1152 28.9717 34.7596C28.4721 34.4039 27.8737 34.2136 27.2604 34.2154H24.2185C23.7818 34.2154 23.3627 34.3081 22.9789 34.4869C22.4649 34.7244 22.0296 35.1039 21.7243 35.5806C21.4189 36.0574 21.2563 36.6115 21.2556 37.1777C21.2556 37.9701 21.5643 38.7143 22.1238 39.2711C22.398 39.5475 22.7243 39.7667 23.0839 39.916C23.4435 40.0653 23.8292 40.1416 24.2185 40.1406H27.2604C28.5216 40.1406 29.6333 39.3253 30.0478 38.1568H32.997C36.2746 38.1568 38.9405 35.4909 38.9405 32.214V29.9143C39.6835 29.5813 40.3144 29.0409 40.7575 28.3578C41.2006 27.6748 41.4369 26.8784 41.438 26.0642V21.3238C41.438 19.6044 40.4027 18.1239 38.9242 17.4665ZM5.49502 19.8341V27.5551C5.49502 27.9814 5.1484 28.3287 4.72149 28.3287C4.1213 28.328 3.54589 28.0893 3.12149 27.6649C2.69709 27.2405 2.45836 26.6651 2.45767 26.0649V21.3244C2.45836 20.7242 2.69709 20.1488 3.12149 19.7244C3.54589 19.3 4.1213 19.0613 4.72149 19.0606C5.1484 19.0606 5.49502 19.4079 5.49502 19.8341ZM28.2429 37.3879C28.1942 37.6127 28.0702 37.8141 27.8914 37.9588C27.7127 38.1036 27.4898 38.1829 27.2598 38.1836H24.2179C23.9502 38.1836 23.6989 38.0792 23.507 37.8872C23.4136 37.7945 23.3395 37.6842 23.2891 37.5626C23.2387 37.441 23.2129 37.3106 23.2132 37.179C23.2139 36.9128 23.32 36.6578 23.5083 36.4696C23.6966 36.2815 23.9517 36.1755 24.2179 36.175H27.2598C27.5274 36.175 27.7787 36.2788 27.97 36.4707C28.1593 36.6594 28.2638 36.9113 28.2638 37.179C28.2644 37.2508 28.2566 37.3226 28.2429 37.3879ZM39.4797 26.0649C39.479 26.6651 39.2403 27.2405 38.8159 27.6649C38.3915 28.0893 37.8161 28.328 37.2159 28.3287C37.0108 28.3285 36.8141 28.247 36.6691 28.1019C36.5241 27.9569 36.4425 27.7602 36.4423 27.5551V19.8341C36.4423 19.4079 36.789 19.0606 37.2159 19.0606C37.8161 19.0613 38.3915 19.3 38.8159 19.7244C39.2403 20.1488 39.479 20.7242 39.4797 21.3244V26.0649Z" fill="#007BFF"/>
<path d="M27.3083 26.4025C28.4083 26.4013 29.463 25.9638 30.2408 25.186C31.0186 24.4081 31.4561 23.3535 31.4573 22.2535V13.7994C31.4573 12.6936 31.0252 11.6518 30.2406 10.8672C29.4559 10.0825 28.4148 9.65039 27.3083 9.65039H14.6275C13.5275 9.6516 12.4729 10.0891 11.6951 10.8669C10.9172 11.6448 10.4797 12.6994 10.4785 13.7994V22.2535C10.4797 23.3535 10.9172 24.4081 11.6951 25.186C12.4729 25.9638 13.5275 26.4013 14.6275 26.4025H14.7052V28.5932C14.7039 28.8607 14.7555 29.1258 14.8571 29.3733C14.9586 29.6208 15.1081 29.8458 15.2969 30.0353C15.4856 30.2248 15.71 30.3751 15.9571 30.4776C16.2042 30.5801 16.4691 30.6327 16.7367 30.6325C17.004 30.633 17.2687 30.5797 17.515 30.4758C17.7612 30.3718 17.9841 30.2193 18.1701 30.0274L21.8146 26.4025H27.3083ZM20.7212 24.7288L16.7771 28.6513C16.7595 28.6696 16.7464 28.6833 16.7092 28.667C16.6642 28.6487 16.6642 28.6193 16.6642 28.5932V25.4234C16.6642 25.1637 16.561 24.9146 16.3774 24.731C16.1938 24.5474 15.9447 24.4442 15.685 24.4442H14.6282C14.0474 24.4435 13.4906 24.2125 13.0799 23.8018C12.6692 23.3911 12.4382 22.8343 12.4375 22.2535V13.7994C12.4382 13.2186 12.6692 12.6618 13.0799 12.2511C13.4906 11.8404 14.0474 11.6094 14.6282 11.6087H27.309C27.8925 11.6087 28.4415 11.8372 28.8567 12.2517C29.2719 12.6669 29.4997 13.2165 29.4997 13.7994V22.2535C29.499 22.8343 29.268 23.3911 28.8573 23.8018C28.4466 24.2125 27.8898 24.4435 27.309 24.4442H21.4118C21.1527 24.4442 20.9046 24.5467 20.7212 24.7288Z" fill="#007BFF"/>
<path d="M16.2122 16.7383C15.4158 16.7383 14.7676 17.3871 14.7676 18.1829C14.7676 18.9786 15.4164 19.6275 16.2122 19.6275C17.0092 19.6275 17.6581 18.9786 17.6581 18.1829C17.6581 17.3871 17.0099 16.7383 16.2122 16.7383ZM20.9683 16.7383C20.1719 16.7383 19.5237 17.3871 19.5237 18.1829C19.5237 18.9786 20.1725 19.6275 20.9683 19.6275C21.766 19.6275 22.4142 18.9786 22.4142 18.1829C22.4142 17.3871 21.766 16.7383 20.9683 16.7383ZM25.7244 16.7383C24.928 16.7383 24.2798 17.3871 24.2798 18.1829C24.2798 18.9786 24.9286 19.6275 25.7244 19.6275C26.5214 19.6275 27.1703 18.9786 27.1703 18.1829C27.1703 17.3871 26.5214 16.7383 25.7244 16.7383Z" fill="#007BFF"/>
</svg>
