<svg width="33" height="33" viewBox="0 0 33 33" fill="none" xmlns="http://www.w3.org/2000/svg">
      <path d="M15.1545 26.8125H10.3145C9.46195 26.8125 8.7057 26.785 8.03195 26.6887C4.4157 26.29 3.43945 24.585 3.43945 19.9375V13.0625C3.43945 8.415 4.4157 6.71 8.03195 6.31125C8.7057 6.215 9.46195 6.1875 10.3145 6.1875H15.072" stroke="#252525" strokeWidth="1.5" strokeLinecap="round" strokeLinejoin="round"/>
      <path d="M20.6523 6.1875H22.6873C23.5398 6.1875 24.2961 6.215 24.9698 6.31125C28.5861 6.71 29.5623 8.415 29.5623 13.0625V19.9375C29.5623 24.585 28.5861 26.29 24.9698 26.6887C24.2961 26.785 23.5398 26.8125 22.6873 26.8125H20.6523" stroke="#252525" strokeWidth="1.5" strokeLinecap="round" strokeLinejoin="round"/>
      <path d="M20.625 2.75V30.25" stroke="#252525" strokeWidth="1.5" strokeLinecap="round" strokeLinejoin="round"/>
      <path d="M15.2542 16.5H15.2665" stroke="#252525" strokeWidth="2" strokeLinecap="round" strokeLinejoin="round"/>
      <path d="M9.75417 16.5H9.76652" stroke="#252525" strokeWidth="2" strokeLinecap="round" strokeLinejoin="round"/>
    </svg>
    