<svg width="71" height="42" viewBox="0 0 71 42" fill="none" xmlns="http://www.w3.org/2000/svg">
<path d="M19.1518 31.6417C29.7325 42.2223 40.6438 42.2223 51.2244 31.6417L46.5954 25.6901C41.9664 32.9642 31.0551 35.2788 24.4422 25.6901L19.1518 31.6417Z" fill="#8A0000"/>
<path d="M54.3677 18.7406C62.7878 12.7266 66.9519 16.2549 67.9814 18.7709C60.6856 17.3147 50.7094 32.443 50.7094 32.443C50.1254 32.3121 47.3423 28.3506 46.0237 26.3863C46.7209 25.2076 51.8769 20.798 54.3677 18.7406Z" fill="#8A0000"/>
<path d="M16.1287 18.9776C7.6368 13.0653 3.51545 16.6435 2.51625 19.1716C9.79408 17.6278 19.9515 32.6351 19.9515 32.6351C20.5339 32.4971 23.2691 28.5025 24.564 26.5225C23.8526 25.3522 18.644 21.005 16.1287 18.9776Z" fill="#8A0000"/>
<path d="M68.7171 31.5685C72.9144 21.0739 68.0187 16.7961 65.2992 15.9628C68.7865 20.6012 64.6326 30.1058 58.4779 33.6745C51.4791 37.2195 44.6642 21.6962 40.9768 17.9913C37.936 15.1326 35.5936 15.2115 35.5936 15.2115L35.6838 23.7057C35.6838 23.7057 37.0829 23.5463 42.8373 31.9901C49.1912 43.4752 63.4706 44.6867 68.7171 31.5685Z" fill="#FF0000"/>
<path d="M2.12995 31.9806C-2.19318 21.5372 2.65063 17.2008 5.36001 16.3349C1.92873 21.0149 6.19656 30.4689 12.3938 33.9632C19.4347 37.4239 26.0624 21.8197 29.705 18.0707C32.7113 15.1757 35.5936 15.2115 35.5936 15.2115L35.6838 23.7057C35.6838 23.7057 33.824 23.5463 28.013 32.0909C21.7977 43.6516 7.53387 45.0348 2.12995 31.9806Z" fill="#FF0000"/>
<circle cx="56.1159" cy="6.74027" r="5.90279" transform="rotate(178.6 56.1159 6.74027)" fill="#252525"/>
<circle cx="13.6475" cy="6.53614" r="5.90279" transform="rotate(-179.289 13.6475 6.53614)" fill="#252525"/>
<circle cx="35.4199" cy="6.48438" r="5.90279" transform="rotate(-179.289 35.4199 6.48438)" fill="#252525"/>
</svg>
